<?xml version="1.0" encoding="UTF-8" standalone="no"?>
<svg
   xmlns:dc="http://purl.org/dc/elements/1.1/"
   xmlns:cc="http://creativecommons.org/ns#"
   xmlns:rdf="http://www.w3.org/1999/02/22-rdf-syntax-ns#"
   xmlns:svg="http://www.w3.org/2000/svg"
   xmlns="http://www.w3.org/2000/svg"
   version="1.1"
   id="svg4179"
   viewBox="0 0 309.74136 77.302936"
   height="21.816607mm"
   width="87.415894mm">
  <defs
     id="defs4181">
    <clipPath
       id="clipPath16"
       clipPathUnits="userSpaceOnUse">
      <path
         id="path18"
         d="m 0,0 765.354,0 0,907.087 L 0,907.087 0,0 Z" />
    </clipPath>
  </defs>
  <metadata
     id="metadata4184">
    <rdf:RDF>
      <cc:Work
         rdf:about="">
        <dc:format>image/svg+xml</dc:format>
        <dc:type
           rdf:resource="http://purl.org/dc/dcmitype/StillImage" />
        <dc:title></dc:title>
      </cc:Work>
    </rdf:RDF>
  </metadata>
  <g
     transform="translate(-62.272171,-587.30293)"
     id="layer1">
    <g
       clip-path="url(#clipPath16)"
       id="g14"
       transform="matrix(1.8211638,0,0,-1.8211638,-834.68706,772.0844)">
      <g
         transform="translate(540.8268,83.4694)"
         id="g20">
        <path
           id="path22"
           style="fill:#98c21f;fill-opacity:1;fill-rule:nonzero;stroke:none"
           d="m 0,0 c 1.781,0 3.23,-1.45 3.23,-3.23 0,-1.781 -1.449,-3.229 -3.23,-3.229 -0.242,0 -0.751,0.089 -0.761,0.091 -0.164,0.037 -0.916,0.191 -1.448,-0.021 -0.719,-0.292 -1.228,-1.001 -1.228,-1.827 0,-0.79 0.581,-1.585 1.206,-1.815 0.626,-0.23 1.538,-0.367 2.231,-0.367 3.953,0 7.169,3.216 7.169,7.168 0,3.953 -3.216,7.169 -7.169,7.169 -1.971,0 -3.875,-0.827 -5.22,-2.261 0,0 -12.655,-13.004 -15.641,-15.571 -2.657,-2.284 -5.865,-3.722 -9.642,-3.722 -3.842,0 -7.455,1.496 -10.171,4.213 -2.717,2.717 -4.214,6.33 -4.214,10.172 0,7.932 6.454,14.384 14.387,14.384 1.532,0 2.57,-0.282 2.977,-0.304 0.991,-0.053 1.798,0.762 1.798,1.704 0,0.824 -0.603,1.553 -1.404,1.698 0,0 -1.548,0.321 -3.375,0.321 -9.816,0 -17.802,-7.986 -17.802,-17.803 0,-4.755 1.852,-9.226 5.215,-12.589 3.362,-3.363 7.833,-5.216 12.589,-5.216 4.611,0 8.96,1.75 12.291,4.937 L -2.29,-0.988 C -1.646,-0.378 -1.006,0 0,0 m -0.002,-13.486 c -1.62,0 -2.31,0.339 -2.869,0.339 -1.086,0 -1.969,-0.884 -1.969,-1.97 0,-0.84 0.578,-1.635 1.339,-1.864 0.761,-0.23 2.133,-0.445 3.5,-0.445 7.827,0 14.197,6.368 14.197,14.196 0,7.827 -6.368,14.196 -14.196,14.196 -3.829,0 -7.539,-1.581 -10.207,-4.344 L -24.498,-9.255 c -1.608,-1.603 -3.74,-2.486 -6.004,-2.486 -4.693,0 -8.51,3.818 -8.51,8.511 0,4.692 3.819,8.51 8.514,8.51 1.097,0 1.439,-0.207 1.907,-0.207 0.816,0 1.661,0.697 1.661,1.709 0,0.812 -0.566,1.54 -1.334,1.706 -0.609,0.132 -1.514,0.212 -2.239,0.212 -6.578,0 -11.928,-5.352 -11.928,-11.93 0,-6.578 5.351,-11.93 11.929,-11.93 5.403,0 8.392,3.46 8.869,3.954 L -7.68,3.558 c 1.95,2.204 4.75,3.469 7.68,3.469 5.655,0 10.257,-4.602 10.257,-10.257 0,-5.655 -4.602,-10.256 -10.259,-10.256 M 15.007,11.776 C 10.999,15.785 5.67,17.994 0,17.994 c -6.74,0 -13.149,-3.262 -17.136,-8.717 0,0 -10.748,-13.44 -11.281,-14.116 -0.534,-0.676 -1.315,-1.027 -2.085,-1.027 -1.454,0 -2.637,1.182 -2.637,2.636 0,1.453 1.183,2.636 2.637,2.636 0.273,0 0.48,-0.029 0.701,-0.029 0.924,0 1.674,0.789 1.674,1.701 0,0.711 -0.492,1.774 -2.164,1.774 -3.58,0 -6.266,-2.743 -6.266,-6.082 0,-3.338 2.716,-6.054 6.055,-6.056 1.702,0 3.318,0.716 4.466,1.97 l 12.387,14.671 c 3.309,4.257 8.284,6.699 13.649,6.699 4.617,0 8.958,-1.798 12.222,-5.062 3.264,-3.265 5.062,-7.606 5.062,-12.222 0,-9.53 -7.755,-17.283 -17.287,-17.283 -2.703,0 -3.591,0.493 -4.254,0.493 -1.121,0 -2.014,-0.882 -2.014,-1.985 0,-0.823 0.488,-1.522 1.284,-1.845 0.681,-0.276 3.321,-0.603 4.987,-0.603 11.702,0 21.223,9.521 21.223,21.223 0,5.669 -2.208,10.998 -6.216,15.006" />
      </g>
      <g
         transform="translate(580.0266,65.6507)"
         id="g24">
        <path
           id="path26"
           style="fill:#24377d;fill-opacity:1;fill-rule:nonzero;stroke:none"
           d="m 0,0 c -0.687,0 -1.447,-0.22 -1.877,-0.888 l -0.018,0 0,0.723 -0.916,0 0,-4.797 0.916,0 0,2.764 c 0,0.944 0.742,1.429 1.575,1.429 0.98,0 1.419,-0.403 1.419,-1.108 l 0,-3.085 0.916,0 0,3.268 C 2.015,-0.495 1.154,0 0,0 m 7.059,-3.956 -1.647,3.791 -1.053,0 2.179,-4.797 1.007,0 2.161,4.797 -1.026,0 -1.621,-3.791 z m 4.991,-1.006 0.916,0 0,4.798 -0.916,0 0,-4.798 z m 0,5.584 0.916,0 0,1.007 -0.916,0 0,-1.007 z m 4.953,-1.666 -0.018,0 0,0.879 -0.916,0 0,-4.797 0.916,0 0,2.435 c 0,1.044 0.632,1.574 1.539,1.574 0.247,0 0.421,-0.037 0.65,-0.091 l 0,0.989 C 18.999,-0.009 18.88,0 18.652,0 18.047,0 17.434,-0.284 17.003,-1.044 M 23.804,0 c -1.868,0 -2.783,-1.181 -2.783,-2.564 0,-1.382 0.915,-2.564 2.783,-2.564 1.868,0 2.784,1.182 2.784,2.564 0,1.383 -0.916,2.564 -2.784,2.564 m 0,-4.359 c -1.327,0 -1.812,0.925 -1.812,1.795 0,0.87 0.485,1.795 1.812,1.795 1.328,0 1.813,-0.925 1.813,-1.795 0,-0.87 -0.485,-1.795 -1.813,-1.795 M 32.136,0 C 31.45,0 30.69,-0.22 30.26,-0.888 l -0.018,0 0,0.723 -0.916,0 0,-4.797 0.916,0 0,2.764 c 0,0.944 0.741,1.429 1.575,1.429 0.979,0 1.418,-0.403 1.418,-1.108 l 0,-3.085 0.916,0 0,3.268 C 34.151,-0.495 33.29,0 32.136,0 m 7.894,0 c -0.686,0 -1.446,-0.22 -1.876,-0.888 l -0.019,0 0,0.723 -0.916,0 0,-4.797 0.916,0 0,2.764 c 0,0.944 0.742,1.429 1.575,1.429 0.979,0 1.419,-0.403 1.419,-1.108 l 0,-3.085 0.916,0 0,3.268 C 42.045,-0.495 41.184,0 40.03,0 M 59.277,0 C 58.362,0 57.775,-0.339 57.337,-0.888 56.952,-0.256 56.329,0 55.706,0 55.02,0 54.26,-0.22 53.829,-0.888 l -0.017,0 0,0.723 -0.917,0 0,-4.797 0.917,0 0,2.764 c 0,0.944 0.74,1.429 1.573,1.429 0.596,0 1.155,-0.266 1.155,-1.145 l 0,-3.048 0.915,0 0,2.902 c 0,0.897 0.742,1.291 1.575,1.291 0.595,0 1.154,-0.266 1.154,-1.145 l 0,-3.048 0.915,0 0,3.268 C 61.099,-0.229 59.763,0 59.277,0 m 15.52,0 C 74.11,0 73.351,-0.22 72.92,-0.888 l -0.019,0 0,0.723 -0.915,0 0,-4.797 0.915,0 0,2.764 c 0,0.944 0.742,1.429 1.575,1.429 0.981,0 1.42,-0.403 1.42,-1.108 l 0,-3.085 0.915,0 0,3.268 C 76.811,-0.495 75.951,0 74.797,0 m 7.775,-0.879 0,0.714 -1.374,0 0,1.475 -0.915,0 0,-1.475 -0.989,0 0,-0.714 0.989,0 0,-3.113 c 0,-0.696 0.366,-1.136 1.263,-1.136 0.375,0 0.715,0.01 1.026,0.065 l 0,0.769 c -0.211,-0.037 -0.421,-0.064 -0.632,-0.064 -0.466,0 -0.742,0.137 -0.742,0.521 l 0,2.958 1.374,0 z m -90.785,0.866 c -0.871,0 -1.592,-0.263 -2.083,-0.76 -0.443,-0.449 -0.687,-1.084 -0.687,-1.791 0,-0.706 0.244,-1.342 0.687,-1.791 0.491,-0.497 1.212,-0.76 2.083,-0.76 0.806,0 1.801,0.357 2.326,1.329 l -0.979,0 c -0.408,-0.522 -1.089,-0.586 -1.392,-0.586 -0.422,0 -0.848,0.143 -1.17,0.393 -0.365,0.282 -0.576,0.677 -0.61,1.14 l -10e-4,0.014 4.414,0 0,0.106 c 0,1.995 -1.336,2.706 -2.588,2.706 m -1.8,-2.124 0.003,0.015 c 0.13,0.817 0.834,1.365 1.752,1.365 0.909,0 1.555,-0.523 1.688,-1.365 l 0.003,-0.015 -3.446,0 z m 57.557,2.124 c -0.872,0 -1.592,-0.263 -2.082,-0.76 -0.444,-0.449 -0.688,-1.084 -0.688,-1.791 0,-0.706 0.244,-1.342 0.688,-1.791 0.49,-0.497 1.21,-0.76 2.082,-0.76 0.806,0 1.801,0.357 2.326,1.329 l -0.979,0 c -0.408,-0.522 -1.089,-0.586 -1.392,-0.586 -0.422,0 -0.849,0.143 -1.17,0.393 -0.365,0.282 -0.576,0.677 -0.61,1.14 l -0.002,0.014 4.415,0 0,0.106 c 0,1.995 -1.337,2.706 -2.588,2.706 m -1.8,-2.124 0.003,0.015 c 0.13,0.817 0.834,1.365 1.752,1.365 0.908,0 1.555,-0.523 1.688,-1.365 l 0.003,-0.015 -3.446,0 z m 20.901,2.124 c -0.872,0 -1.593,-0.263 -2.083,-0.76 -0.444,-0.449 -0.688,-1.084 -0.688,-1.791 0,-0.706 0.244,-1.342 0.688,-1.791 0.49,-0.497 1.211,-0.76 2.083,-0.76 0.805,0 1.801,0.357 2.326,1.329 l -0.98,0 c -0.408,-0.522 -1.088,-0.586 -1.392,-0.586 -0.422,0 -0.848,0.143 -1.17,0.393 -0.365,0.282 -0.576,0.677 -0.61,1.14 l -0.001,0.014 4.414,0 0,0.106 c 0,1.995 -1.336,2.706 -2.587,2.706 m -1.801,-2.124 0.003,0.015 c 0.13,0.817 0.835,1.365 1.752,1.365 0.909,0 1.555,-0.523 1.689,-1.365 l 0.002,-0.015 -3.446,0 z" />
      </g>
      <g
         transform="translate(585.8181,80.6047)"
         id="g28">
        <path
           id="path30"
           style="fill:#24377d;fill-opacity:1;fill-rule:nonzero;stroke:none"
           d="m 0,0 -11.248,4.12 c -0.565,0.215 -0.967,0.763 -0.967,1.404 0,0.828 0.672,1.501 1.501,1.501 l 12.209,0 0,4.413 -12.334,0 c -3.266,0 -5.914,-2.648 -5.914,-5.914 0,-2.523 1.579,-4.676 3.803,-5.527 l 11.247,-4.119 c 0.571,-0.206 0.968,-0.763 0.968,-1.404 0,-0.829 -0.672,-1.501 -1.502,-1.501 l -14.536,0 0,-4.413 14.662,0 c 3.266,0 6.038,2.648 6.038,5.914 C 3.927,-3.003 2.223,-0.85 0,0 m 62.245,-7.027 c -0.83,0 -1.502,0.672 -1.502,1.501 0,0.641 0.397,1.198 0.968,1.404 l 11.248,4.119 c 2.223,0.851 3.802,3.004 3.802,5.527 0,3.266 -2.648,5.914 -5.914,5.914 l -12.334,0 0,-4.413 12.209,0 c 0.829,0 1.502,-0.673 1.502,-1.501 0,-0.641 -0.403,-1.189 -0.968,-1.404 L 60.008,0 c -2.223,-0.85 -3.927,-3.003 -3.927,-5.526 0,-3.266 2.772,-5.914 6.039,-5.914 l 14.66,0 0,4.413 -14.535,0 z m -39.883,4.806 c 0.013,-3.466 -2.087,-5.255 -5.305,-5.255 -3.218,0 -5.318,1.789 -5.305,5.255 l 0,13.659 -4.803,0 0,-13.98 c 0,-5.114 3.7,-9.199 10.108,-9.199 6.409,0 10.108,4.085 10.108,9.199 l 0,13.98 -4.803,0 0,-13.659 z m 20.243,13.96 c -6.599,0 -11.817,-5.257 -11.817,-11.741 0,-6.482 5.218,-11.739 11.817,-11.739 4.084,0 7.406,1.694 9.812,4.571 l -3.674,2.618 c -1.673,-1.942 -3.695,-3.045 -6.14,-3.045 -3.403,0 -6.249,2.543 -6.96,5.946 l 18.417,0 c 0.07,0.515 0.117,1.115 0.117,1.649 0,6.481 -4.972,11.741 -11.572,11.741 m -6.85,-9.595 c 0.863,3.166 3.601,5.481 6.846,5.481 3.245,0 5.984,-2.315 6.847,-5.481 l -13.693,0 z" />
      </g>
    </g>
  </g>
</svg>
